<svg width="60" height="60" viewBox="0 0 60 60" fill="none" xmlns="http://www.w3.org/2000/svg">
<path fillRule="evenodd" clipRule="evenodd" d="M29.8689 0C13.3979 0 0 13.4017 0 29.8773C0 36.4113 2.10717 42.471 5.68919 47.3895L1.96643 58.49L13.4504 54.8198C18.1738 57.9462 23.8104 59.7551 29.8862 59.7551C46.3572 59.7551 59.7551 46.3529 59.7551 29.8778C59.7551 13.4022 46.3572 0.000493886 29.8862 0.000493886L29.8689 0ZM21.5278 15.1763C20.9485 13.7888 20.5094 13.7363 19.6318 13.7006C19.3329 13.6832 18.9999 13.6659 18.6307 13.6659C17.4889 13.6659 16.295 13.9995 15.575 14.7372C14.6973 15.6329 12.5197 17.7228 12.5197 22.0088C12.5197 26.2948 15.6453 30.4399 16.0666 31.0199C16.5057 31.5989 22.1602 40.5218 30.9398 44.1584C37.8055 47.0038 39.8428 46.7401 41.4054 46.4064C43.688 45.9147 46.5505 44.2278 47.2706 42.1909C47.9906 40.153 47.9906 38.414 47.7795 38.0452C47.5689 37.6764 46.989 37.4662 46.1114 37.0265C45.2337 36.5873 40.9663 34.4795 40.1585 34.1984C39.3681 33.9 38.6133 34.0056 38.0166 34.8488C37.1737 36.0256 36.3486 37.2203 35.681 37.9401C35.1542 38.5023 34.2934 38.5726 33.5738 38.2737C32.6079 37.8702 29.9041 36.9209 26.5674 33.9526C23.9859 31.6519 22.2301 28.7892 21.7211 27.9286C21.2117 27.0507 21.6685 26.5406 22.0719 26.0667C22.511 25.5219 22.9323 25.1358 23.3714 24.6262C23.8105 24.1171 24.0563 23.8533 24.3373 23.256C24.6361 22.6765 24.425 22.0792 24.2143 21.64C24.0037 21.2008 22.2479 16.9148 21.5278 15.1763Z" fill="white"/>
</svg>
