<svg width="246" height="250" viewBox="0 0 246 250" fill="none" xmlns="http://www.w3.org/2000/svg">
<path d="M52.0456 129.641C52.1407 131.637 51.784 133.452 50.9756 135.086C50.1671 136.719 49.0139 138.028 47.5161 139.011C45.9918 139.97 44.2443 140.496 42.2736 140.59C40.303 140.684 38.526 140.325 36.9427 139.514C35.333 138.68 34.0607 137.487 33.1258 135.936C32.1657 134.386 31.6382 132.614 31.5431 130.618C31.448 128.622 31.8053 126.819 32.615 125.211C33.3982 123.578 34.5519 122.283 36.0762 121.324C37.5741 120.341 39.3083 119.802 41.279 119.708C43.2496 119.615 45.0399 119.985 46.6496 120.82C48.2329 121.631 49.5046 122.811 50.4647 124.361C51.4236 125.885 51.9505 127.645 52.0456 129.641ZM48.8622 129.793C48.8009 128.504 48.4556 127.368 47.8263 126.385C47.1706 125.379 46.2984 124.61 45.2095 124.079C44.0955 123.55 42.8437 123.318 41.4541 123.384C40.0645 123.451 38.853 123.8 37.8195 124.431C36.7608 125.064 35.9656 125.912 35.4338 126.976C34.9009 128.014 34.6651 129.177 34.7265 130.466C34.7879 131.755 35.1338 132.903 35.7642 133.911C36.3934 134.894 37.2657 135.663 38.381 136.217C39.4698 136.748 40.709 136.98 42.0985 136.914C43.4881 136.848 44.7123 136.498 45.771 135.865C46.8032 135.208 47.5985 134.36 48.1567 133.321C48.6884 132.257 48.9236 131.081 48.8622 129.793Z" fill="white"/>
<path d="M39.0703 98.8799L37.43 106.055L53.9259 109.826L53.1143 113.377L36.6183 109.606L34.9781 116.781L31.8712 116.071L35.9635 98.1697L39.0703 98.8799Z" fill="white"/>
<path d="M52.2169 90.4331L50.2816 94.1307L57.8114 98.0715L56.1225 101.299L38.3065 91.9743L39.9954 88.7473L47.5252 92.6881L49.4956 88.9232L44.9918 79.2006L46.8039 75.7383L51.8396 86.9811L64.8661 84.5919L62.8781 88.3904L52.2169 90.4331Z" fill="white"/>
<path d="M59.9544 58.8597C61.325 57.4761 62.8588 56.5388 64.5556 56.0479C66.2524 55.557 67.9515 55.549 69.6528 56.0239C71.372 56.4808 72.9503 57.4213 74.3879 58.8454C75.8254 60.2695 76.7897 61.8478 77.2808 63.5804C77.7717 65.2772 77.7797 66.9763 77.3048 68.6776C76.8299 70.379 75.9071 71.9215 74.5364 73.3051C73.5218 74.3294 72.3896 75.077 71.1398 75.5479C69.9079 76.0008 68.6208 76.1499 67.2787 75.9953L74.664 83.3115L72.1007 85.899L52.586 66.5673L55.0426 64.0875L57.3067 66.3304C57.0857 64.9722 57.2136 63.657 57.6906 62.3849C58.1495 61.0949 58.9041 59.9199 59.9544 58.8597ZM72.0587 71.2778C72.9665 70.3614 73.5698 69.3391 73.8686 68.2109C74.1672 67.0469 74.1438 65.8845 73.7985 64.7236C73.453 63.5269 72.7862 62.439 71.7979 61.4599C70.8095 60.4809 69.7244 59.8332 68.5425 59.5168C67.3604 59.1647 66.1978 59.1522 65.0546 59.4796C63.9293 59.7889 62.9127 60.4018 62.0049 61.3182C61.1148 62.2167 60.5205 63.2479 60.222 64.4119C59.9232 65.5401 59.9376 66.6936 60.2651 67.8725C60.6104 69.0335 61.2772 70.1034 62.2655 71.0825C63.2538 72.0615 64.339 72.7271 65.5211 73.0793C66.6852 73.4136 67.8478 73.426 69.0089 73.1165C70.1521 72.7892 71.1687 72.1763 72.0587 71.2778Z" fill="white"/>
<path d="M85.8671 48.9921C88.1627 47.9297 90.1601 47.625 91.8594 48.078C93.5586 48.5309 94.8532 49.6942 95.7431 51.5676C96.6763 53.5325 96.7354 55.3666 95.9203 57.0698C95.1172 58.7394 93.4879 60.1433 91.0324 61.2816L83.3737 64.8774L74.7463 46.7138L78.0363 45.1511L80.9501 51.2856L85.8671 48.9921ZM92.7043 38.184L95.9943 36.6213L104.622 54.7849L101.332 56.3476L92.7043 38.184ZM89.6042 58.8938C91.1002 58.2112 92.0786 57.3825 92.5395 56.4075C93.0233 55.4216 92.9777 54.3233 92.4025 53.1123C91.8382 51.9243 91.0488 51.2352 90.0344 51.0449C89.02 50.8547 87.7534 51.1063 86.2346 51.7997L82.0896 53.6845L85.4754 60.8129L89.6042 58.8938Z" fill="white"/>
<path d="M121.246 35.5456L113.957 36.572L116.317 53.3281L112.71 53.836L110.351 37.0799L103.062 38.1063L102.618 34.9505L120.801 32.3897L121.246 35.5456Z" fill="white"/>
<path d="M127.639 32.2328L131.245 32.7497L129.166 47.2465L143.45 34.4996L146.718 34.9681L143.864 54.873L140.259 54.3561L142.337 39.8593L128.09 52.6115L124.785 52.1377L127.639 32.2328Z" fill="white"/>
<path d="M168.44 55.2605C168.317 55.5102 168.133 55.8282 167.887 56.2145L153.244 49.0207C152.668 50.7102 152.73 52.3331 153.431 53.8892C154.165 55.4338 155.418 56.6411 157.189 57.511C159.346 58.5706 161.439 58.6973 163.47 57.8913L164.237 60.8893C162.952 61.4412 161.573 61.6658 160.102 61.563C158.653 61.4713 157.18 61.0574 155.682 60.3213C153.775 59.3844 152.273 58.1676 151.176 56.6707C150.091 55.1512 149.486 53.4869 149.36 51.6779C149.257 49.88 149.64 48.0957 150.51 46.325C151.369 44.5769 152.53 43.1888 153.993 42.1605C155.48 41.1433 157.093 40.5834 158.835 40.4807C160.61 40.3665 162.36 40.7332 164.085 41.5808C165.811 42.4285 167.148 43.5786 168.097 45.0312C169.08 46.4723 169.6 48.0806 169.658 49.8561C169.738 51.6429 169.332 53.4443 168.44 55.2605ZM162.73 44.3391C161.164 43.5696 159.613 43.3994 158.077 43.8287C156.565 44.2691 155.338 45.2166 154.398 46.6711L165.976 52.3592C166.542 50.749 166.525 49.205 165.927 47.7273C165.362 46.2381 164.297 45.1087 162.73 44.3391Z" fill="white"/>
<path d="M207.419 147.182C206.575 148.571 205.546 149.566 204.331 150.168C203.116 150.77 201.762 150.935 200.269 150.663C198.701 150.378 197.409 149.706 196.394 148.647C195.403 147.593 194.739 146.225 194.402 144.544C194.065 142.863 194.089 140.965 194.474 138.85C194.854 136.759 195.498 134.987 196.405 133.532C197.308 132.103 198.408 131.069 199.707 130.431C201.031 129.798 202.476 129.624 204.044 129.909C205.537 130.18 206.748 130.799 207.678 131.765C208.603 132.756 209.216 134.05 209.517 135.648C210.307 134.557 211.231 133.787 212.29 133.337C213.349 132.887 214.525 132.779 215.819 133.015C217.262 133.277 218.449 133.892 219.379 134.858C220.304 135.849 220.924 137.105 221.238 138.628C221.552 140.151 221.54 141.845 221.2 143.711C220.856 145.603 220.269 147.205 219.439 148.52C218.604 149.859 217.581 150.817 216.371 151.394C215.156 151.996 213.827 152.165 212.383 151.903C211.114 151.672 210.053 151.145 209.2 150.321C208.368 149.527 207.774 148.48 207.419 147.182ZM218.177 143.161C218.498 141.395 218.366 139.931 217.78 138.77C217.219 137.614 216.292 136.918 214.998 136.683C213.704 136.448 212.593 136.76 211.665 137.619C210.733 138.504 210.104 139.842 209.778 141.634C209.448 143.45 209.563 144.937 210.124 146.093C210.68 147.274 211.606 147.982 212.9 148.217C214.194 148.453 215.311 148.103 216.252 147.169C217.214 146.264 217.855 144.928 218.177 143.161ZM197.497 139.4C197.121 141.465 197.248 143.172 197.877 144.521C198.531 145.874 199.591 146.684 201.06 146.951C202.503 147.213 203.744 146.822 204.782 145.777C205.846 144.736 206.565 143.183 206.941 141.118C207.317 139.052 207.188 137.358 206.555 136.034C205.946 134.715 204.92 133.924 203.477 133.662C202.009 133.395 200.733 133.767 199.649 134.778C198.59 135.794 197.873 137.334 197.497 139.4Z" fill="white"/>
<path d="M191.293 189.906L175.203 177.846L177.182 175.205L188.931 184.011L183.509 170.559L184.465 169.284L198.883 170.797L187.103 161.968L189.106 159.296L205.196 171.356L202.944 174.362L187.342 172.53L193.341 187.173L191.293 189.906Z" fill="white"/>
<path d="M177.726 201.041C175.44 202.628 173.305 203.278 171.321 202.993C169.317 202.722 167.543 201.475 165.999 199.251L159.076 189.278L161.912 187.309L163.427 189.491C163.392 188.376 163.698 187.286 164.344 186.221C164.984 185.192 165.938 184.237 167.206 183.357C169.055 182.074 170.851 181.489 172.593 181.604C174.314 181.733 175.68 182.525 176.69 183.979C177.699 185.434 177.977 186.965 177.523 188.573C177.084 190.202 175.711 191.817 173.404 193.418L168.667 196.707L169.078 197.299C169.972 198.587 171.031 199.315 172.255 199.481C173.479 199.648 174.818 199.226 176.273 198.216C177.249 197.538 178.09 196.709 178.794 195.727C179.513 194.767 180.007 193.793 180.276 192.805L183.08 194.184C182.704 195.461 182.047 196.687 181.108 197.862C180.183 199.059 179.056 200.118 177.726 201.041ZM168.308 186.01C167.165 186.803 166.351 187.738 165.866 188.813C165.396 189.91 165.298 191.055 165.573 192.25L167.174 194.556L171.787 191.354C174.322 189.595 174.998 187.863 173.815 186.159C173.238 185.328 172.462 184.897 171.486 184.866C170.51 184.836 169.451 185.217 168.308 186.01Z" fill="white"/>
<path d="M150.643 214.629C148.789 215.225 146.996 215.351 145.264 215.005C143.531 214.659 142.02 213.883 140.728 212.678C139.413 211.481 138.445 209.919 137.825 207.992C137.205 206.066 137.077 204.221 137.439 202.457C137.785 200.725 138.56 199.213 139.766 197.922C140.971 196.631 142.5 195.687 144.354 195.09C145.727 194.648 147.076 194.506 148.402 194.664C149.704 194.829 150.915 195.29 152.035 196.046L148.851 186.15L152.318 185.034L160.733 211.182L157.411 212.251L156.434 209.217C156.005 210.525 155.285 211.633 154.276 212.543C153.274 213.476 152.063 214.171 150.643 214.629ZM145.62 198.031C144.392 198.426 143.385 199.055 142.6 199.919C141.799 200.815 141.285 201.857 141.056 203.047C140.812 204.268 140.902 205.541 141.329 206.865C141.755 208.189 142.42 209.264 143.323 210.089C144.21 210.946 145.236 211.493 146.401 211.729C147.543 211.973 148.727 211.897 149.955 211.502C151.159 211.114 152.162 210.473 152.963 209.577C153.748 208.714 154.266 207.683 154.519 206.486C154.747 205.296 154.648 204.04 154.222 202.715C153.796 201.391 153.139 200.3 152.252 199.443C151.373 198.61 150.347 198.064 149.174 197.804C148.008 197.568 146.824 197.643 145.62 198.031Z" fill="white"/>
<path d="M117.527 214.669L124.884 214.441L124.36 197.528L128.001 197.415L128.524 214.328L135.881 214.101L135.98 217.286L117.625 217.854L117.527 214.669Z" fill="white"/>
<path d="M104.146 214.847C101.432 214.235 99.509 213.102 98.3781 211.447C97.2225 209.787 96.9422 207.636 97.5371 204.996L100.206 193.152L103.574 193.911L102.99 196.502C103.788 195.722 104.798 195.211 106.02 194.968C107.211 194.743 108.559 194.801 110.064 195.14C112.26 195.635 113.905 196.563 114.998 197.924C116.067 199.28 116.407 200.821 116.018 202.549C115.628 204.276 114.688 205.516 113.196 206.269C111.698 207.046 109.58 207.126 106.841 206.509L101.215 205.241L101.057 205.945C100.712 207.475 100.892 208.747 101.597 209.761C102.302 210.776 103.518 211.477 105.245 211.867C106.405 212.128 107.584 212.186 108.784 212.042C109.978 211.922 111.029 211.627 111.939 211.158L112.819 214.156C111.624 214.743 110.275 215.087 108.774 215.19C107.268 215.317 105.725 215.203 104.146 214.847ZM108.855 197.746C107.498 197.44 106.259 197.472 105.139 197.842C104.013 198.236 103.102 198.938 102.408 199.949L101.791 202.688L107.269 203.922C110.279 204.6 112.012 203.928 112.468 201.904C112.691 200.917 112.483 200.054 111.846 199.314C111.209 198.574 110.212 198.051 108.855 197.746Z" fill="white"/>
</svg>
